<svg width="96" height="96" viewBox="0 0 96 96" fill="none" xmlns="http://www.w3.org/2000/svg">
  <rect width="96" height="96" rx="20" fill="#3b82f6"/>
  <svg x="16" y="16" width="64" height="64" viewBox="0 0 24 24" fill="white">
    <path d="M12 2C13.1 2 14 2.9 14 4V10C14 11.1 13.1 12 12 12H10C8.9 12 8 11.1 8 10V4C8 2.9 8.9 2 10 2H12Z"/>
    <path d="M12 12C13.1 12 14 12.9 14 14V20C14 21.1 13.1 22 12 22H10C8.9 22 8 21.1 8 20V14C8 12.9 8.9 12 10 12H12Z"/>
    <path d="M12 22C13.1 22 14 22.9 14 24V20C14 18.9 13.1 18 12 18H10C8.9 18 8 18.9 8 20V24C8 25.1 8.9 26 10 26H12C13.1 26 14 25.1 14 24V20C14 18.9 13.1 18 12 18H10Z"/>
  </svg>
</svg> 